<svg xmlns="http://www.w3.org/2000/svg" width="30" height="30" viewBox="0 0 30 30"><defs><style>.a{fill:#6f6f6f;}.b{fill:none;}</style></defs><path class="a" d="M22.313,25.875H6.688A4.662,4.662,0,0,1,2,21.25V11.125A4.662,4.662,0,0,1,6.688,6.5H22.313A4.662,4.662,0,0,1,27,11.125V21.25A4.663,4.663,0,0,1,22.313,25.875ZM6.688,8.375a2.8,2.8,0,0,0-2.813,2.75V21.25a2.8,2.8,0,0,0,2.813,2.775H22.313a2.8,2.8,0,0,0,2.812-2.775V11.125a2.8,2.8,0,0,0-2.812-2.75Z" transform="translate(0.5 1.625)"/><path class="a" d="M10.45,9.5A3.75,3.75,0,1,1,14.2,5.75,3.75,3.75,0,0,1,10.45,9.5Zm0-5.625A1.888,1.888,0,1,0,12.362,5.75a1.912,1.912,0,0,0-1.912-1.9Z" transform="translate(1.675 0.5)"/><path class="a" d="M15.01,9.5a3.75,3.75,0,1,1,3.75-3.75A3.75,3.75,0,0,1,15.01,9.5Zm0-5.625a1.888,1.888,0,1,0,0-.025Z" transform="translate(2.815 0.5)"/><path class="a" d="M7.911,12.98a.987.987,0,0,1-.663-.275.925.925,0,0,1,0-1.25L12.561,6.2a.938.938,0,0,1,1.325,0,.925.925,0,0,1,0,1.312l-5.313,5.25a.963.963,0,0,1-.663.212Z" transform="translate(1.751 1.483)"/><path class="a" d="M17.481,12.992a.937.937,0,0,1-.662-.275l-5.313-5.25a.912.912,0,0,1,0-1.312.938.938,0,0,1,1.325,0l5.313,5.25a.925.925,0,0,1,0,1.25A.987.987,0,0,1,17.481,12.992Z" transform="translate(2.807 1.47)"/><rect class="a" width="22.638" height="1.85" transform="translate(3.925 17.825)"/><rect class="b" width="30" height="30"/></svg>