<svg xmlns="http://www.w3.org/2000/svg" width="30" height="30" viewBox="0 0 30 30"><defs><style>.a{fill:#6f6f6f;}.b{fill:none;}</style></defs><path class="a" d="M12.6,26.108A10.5,10.5,0,0,1,2,15.733a10.837,10.837,0,0,1,7.813-10.1,2.325,2.325,0,0,1,1.938.4,2.038,2.038,0,0,1,.812,1.625c0,5.138.175,6.525.9,7.05a2.913,2.913,0,0,0,1.725.313h5.637a2.35,2.35,0,0,1,1.762.788,2.063,2.063,0,0,1,.488,1.55A10.45,10.45,0,0,1,12.6,26.108ZM10.35,7.358h-.113A8.988,8.988,0,0,0,3.8,15.733a8.75,8.75,0,0,0,8.75,8.625A8.75,8.75,0,0,0,21.3,17.1a.312.312,0,0,0-.088-.25.513.513,0,0,0-.388-.175c-1.675,0-2.95,0-3.962.063H15.225a4.313,4.313,0,0,1-2.825-.625c-1.5-1.075-1.65-2.95-1.65-8.45a.3.3,0,0,0-.112-.3.437.437,0,0,0-.288,0Z" transform="translate(0.5 1.392)"/><path class="a" d="M17.821,14.05c-1.513,0-2.875,0-3.75-.1a1.95,1.95,0,0,1-1.85-1.812c-.1-1.55-.3-5.487-.15-8.525A1.688,1.688,0,0,1,13.746,2h.225A10.35,10.35,0,0,1,21.1,5.2a10.412,10.412,0,0,1,3.4,6.887,1.7,1.7,0,0,1-1.462,1.65,36.25,36.25,0,0,1-5.212.313ZM13.871,3.763c-.137,2.962.063,6.762.15,8.263a.163.163,0,0,0,.163.163c.675,0,2.037.1,3.65.1A35.124,35.124,0,0,0,22.7,12a8.75,8.75,0,0,0-2.863-5.562A8.6,8.6,0,0,0,13.9,3.75Z" transform="translate(3.004 0.5)"/><rect class="b" width="30" height="30"/></svg>