<svg xmlns="http://www.w3.org/2000/svg" width="30" height="30" viewBox="0 0 30 30"><defs><style>.a{fill:#6f6f6f;}.b{fill:none;}</style></defs><g transform="translate(2.497 3.65)"><path class="a" d="M21.826,25.62H7.176A5.175,5.175,0,0,1,2,20.519H2V17.145a.95.95,0,0,1,.938-.937,1.863,1.863,0,0,0,1.25-.55,1.787,1.787,0,0,0,0-2.587A1.737,1.737,0,0,0,3.013,12.6h-.05a.95.95,0,0,1-.675-.263A.925.925,0,0,1,2,11.583V8.095A5.175,5.175,0,0,1,7.176,2.92h14.65A5.188,5.188,0,0,1,27,8.1V11.47a.938.938,0,0,1-.937.938,1.875,1.875,0,1,0,0,3.75h0A.95.95,0,0,1,27,17.1V20.47a5.175,5.175,0,0,1-5.175,5.15ZM7.176,4.8a3.3,3.3,0,0,0-3.3,3.3v2.65a3.6,3.6,0,0,1,1.638.875,3.65,3.65,0,0,1,1.162,2.5,3.825,3.825,0,0,1-2.8,3.75v2.5a3.3,3.3,0,0,0,3.3,3.3h14.65a3.3,3.3,0,0,0,3.3-3.3V17.883a3.75,3.75,0,0,1,0-7.225v-2.5a3.3,3.3,0,0,0-3.3-3.3Z" transform="translate(-1.997 -2.92)"/></g><path class="a" d="M14.973,17.127a1.463,1.463,0,0,1-.688-.163l-1.337-.712-1.337.712a1.463,1.463,0,0,1-2.137-1.25.775.775,0,0,1,0-.238l.25-1.5-1.087-1.05a1.463,1.463,0,0,1,0-2.063,1.5,1.5,0,0,1,.838-.425l1.5-.213L11.7,8.815a1.437,1.437,0,0,1,2.6,0l.675,1.35,1.5.225a1.45,1.45,0,0,1,1.25,1.65,1.538,1.538,0,0,1-.425.837L16.21,13.94l.25,1.488a1.462,1.462,0,0,1-1.187,1.687ZM12.948,10.4l-.388.8a1.488,1.488,0,0,1-1.1.8l-.875.125.637.625A1.487,1.487,0,0,1,11.635,14l-.15.875.788-.413a1.388,1.388,0,0,1,.675-.175,1.475,1.475,0,0,1,.688.175l.775.413L14.26,14a1.45,1.45,0,0,1,.425-1.25l.637-.625L14.448,12a1.475,1.475,0,0,1-1.1-.8Z" transform="translate(2.052 1.998)"/><rect class="b" width="30" height="30"/></svg>